<svg xmlns="http://www.w3.org/2000/svg" xmlns:xlink="http://www.w3.org/1999/xlink" fill="#1db954" width="40" height="40" viewBox="-8 -8 32 32" version="1.1">
<path d="M 12.730469 7.09375 C 10.152344 5.5625 5.898438 5.421875 3.4375 6.167969 C 3.042969 6.289062 2.625 6.0625 2.503906 5.667969 C 2.386719 5.273438 2.609375 4.855469 3.003906 4.734375 C 5.828125 3.878906 10.527344 4.042969 13.496094 5.804688 C 13.851562 6.015625 13.96875 6.476562 13.757812 6.832031 C 13.546875 7.1875 13.085938 7.304688 12.730469 7.09375 Z M 12.648438 9.359375 C 12.464844 9.652344 12.082031 9.746094 11.789062 9.566406 C 9.640625 8.246094 6.363281 7.863281 3.816406 8.632812 C 3.488281 8.734375 3.140625 8.546875 3.039062 8.21875 C 2.941406 7.886719 3.125 7.539062 3.457031 7.441406 C 6.363281 6.558594 9.972656 6.984375 12.441406 8.503906 C 12.734375 8.683594 12.828125 9.066406 12.648438 9.359375 Z M 11.667969 11.539062 C 11.523438 11.773438 11.21875 11.847656 10.984375 11.703125 C 9.105469 10.558594 6.738281 10.296875 3.957031 10.933594 C 3.6875 10.996094 3.421875 10.828125 3.359375 10.558594 C 3.296875 10.289062 3.464844 10.023438 3.734375 9.960938 C 6.78125 9.265625 9.394531 9.566406 11.503906 10.851562 C 11.738281 10.996094 11.8125 11.304688 11.667969 11.539062 Z M 8 0 C 3.582031 0 0 3.582031 0 8 C 0 12.417969 3.582031 16 8 16 C 12.417969 16 16 12.417969 16 8 C 16 3.582031 12.417969 0 8 0 Z M 8 0 "/>
</svg>
